<svg xmlns="http://www.w3.org/2000/svg" xmlns:svg="http://www.w3.org/2000/svg" xmlns:xlink="http://www.w3.org/1999/xlink" id="svg2837" width="22" height="22" version="1.1"><defs id="defs2839"><radialGradient id="radialGradient7192-2" cx="4.088" cy="15.89" r=".663" fx="4.657" fy="16.146" gradientTransform="matrix(2.8333333,0.9,-0.43392852,1.3660713,-0.59931111,-9.4961718)" gradientUnits="userSpaceOnUse" xlink:href="#linearGradient7186-2"/><linearGradient id="linearGradient7186-2"><stop style="stop-color:#eae3d0;stop-opacity:.38275862" id="stop7188-4" offset="0"/><stop style="stop-color:#eae3d0;stop-opacity:0" id="stop7190-9" offset="1"/></linearGradient><radialGradient id="radialGradient7192-4" cx="4.088" cy="15.89" r=".663" fx="4.657" fy="16.146" gradientTransform="matrix(2.8333333,0.9,-0.43392852,1.3660713,-0.59931111,-9.4961718)" gradientUnits="userSpaceOnUse" xlink:href="#linearGradient7186-4"/><linearGradient id="linearGradient7186-4"><stop style="stop-color:#eae3d0;stop-opacity:.38275862" id="stop7188-8" offset="0"/><stop style="stop-color:#eae3d0;stop-opacity:0" id="stop7190-7" offset="1"/></linearGradient><radialGradient id="radialGradient7192-1" cx="4.088" cy="15.89" r=".663" fx="4.657" fy="16.146" gradientTransform="matrix(2.8333333,0.9,-0.43392852,1.3660713,-0.59931111,-9.4961718)" gradientUnits="userSpaceOnUse" xlink:href="#linearGradient7186-5"/><linearGradient id="linearGradient7186-5"><stop style="stop-color:#eae3d0;stop-opacity:.38275862" id="stop7188-5" offset="0"/><stop style="stop-color:#eae3d0;stop-opacity:0" id="stop7190-4" offset="1"/></linearGradient><radialGradient id="radialGradient7192-8" cx="4.088" cy="15.89" r=".663" fx="4.657" fy="16.146" gradientTransform="matrix(2.8333333,0.9,-0.43392852,1.3660713,-0.59931111,-9.4961718)" gradientUnits="userSpaceOnUse" xlink:href="#linearGradient7186-9"/><linearGradient id="linearGradient7186-9"><stop style="stop-color:#eae3d0;stop-opacity:.38275862" id="stop7188-88" offset="0"/><stop style="stop-color:#eae3d0;stop-opacity:0" id="stop7190-1" offset="1"/></linearGradient></defs><metadata id="metadata2842"/><g id="layer5" transform="translate(0,-2)" style="display:inline"><path style="font-size:medium;font-style:normal;font-variant:normal;font-weight:400;font-stretch:normal;text-indent:0;text-align:start;text-decoration:none;line-height:normal;letter-spacing:normal;word-spacing:normal;text-transform:none;direction:ltr;block-progression:tb;writing-mode:lr-tb;text-anchor:start;opacity:.23999999;color:#000;fill:#eae3d0;fill-opacity:1;stroke:none;stroke-width:3.53497338;marker:none;visibility:visible;display:inline;overflow:visible;enable-background:accumulate;font-family:Aller;-inkscape-font-specification:Aller" id="path4672-2-2" d="M 11 2.0625 C 7.0002132 2.0625 3.71875 5.3439644 3.71875 9.34375 C 3.71875 10.605603 4.055224 11.829851 4.65625 12.90625 C 5.0792497 13.662131 5.7546564 14.190364 6.40625 14.75 C 6.41213 14.755 6.40035 14.77623 6.40625 14.78125 L 7.09375 17.5 C 7.112561 17.623476 7.113259 17.652276 7.15625 17.78125 C 7.2652279 18.108184 7.4663829 18.528883 7.8125 18.875 C 8.5047342 19.567235 9.6028836 19.9375 11 19.9375 C 12.397116 19.9375 13.495266 19.567235 14.1875 18.875 C 14.533617 18.528883 14.734772 18.108184 14.84375 17.78125 C 14.89134 17.638479 14.88767 17.600908 14.90625 17.46875 L 14.9375 17.46875 L 15.59375 14.71875 C 16.340761 14.080449 16.992337 13.39218 17.4375 12.5 C 17.925422 11.561578 18.28125 10.521343 18.28125 9.34375 C 18.28125 8.343804 18.088782 7.4012549 17.71875 6.53125 C 17.348718 5.6612452 16.785033 4.8787832 16.125 4.21875 C 14.804933 2.8986834 12.999893 2.0625 11 2.0625 z M 11 3.0625 C 12.726973 3.0625 14.301701 3.7704514 15.4375 4.90625 C 16.005399 5.4741493 16.463261 6.1565181 16.78125 6.90625 C 17.099239 7.6559818 17.28125 8.480264 17.28125 9.34375 C 17.28125 11.401856 16.184563 13.142811 14.65625 14.28125 L 14.65625 14.3125 L 13.96875 17.0625 C 13.96875 17.0625 13.9453 17.18324 13.9375 17.25 C 13.92813 17.329945 13.91118 17.360209 13.875 17.46875 C 13.808607 17.667929 13.695838 17.929162 13.46875 18.15625 C 13.014573 18.610427 12.228784 18.9375 11 18.9375 C 9.7712164 18.9375 8.9854267 18.610427 8.53125 18.15625 C 8.3041616 17.929162 8.191393 17.667929 8.125 17.46875 C 8.08882 17.360209 8.07187 17.32994 8.0625 17.25 C 8.054679 17.183242 8.03125 17.0625 8.03125 17.0625 L 7.34375 14.34375 C 6.6229797 13.811964 5.9726313 13.194183 5.53125 12.40625 C 5.0148226 11.486057 4.71875 10.458766 4.71875 9.34375 C 4.71875 8.480264 4.9007613 7.6559819 5.21875 6.90625 C 5.8547274 5.4067863 7.063036 4.1984774 8.5625 3.5625 C 9.3122319 3.2445113 10.136514 3.0625 11 3.0625 z M 11 4.59375 C 9.6824074 4.59375 8.4843965 5.1093535 7.625 5.96875 C 7.1953017 6.3984483 6.8649242 6.9306777 6.625 7.5 C 6.3850759 8.069322 6.25 8.684954 6.25 9.34375 C 6.25 10.748171 6.9366285 11.939876 7.90625 12.8125 C 8.1045215 12.982944 8.1990681 13.192686 8.4375 13.34375 C 9.0442175 13.728149 10.155323 14.028471 10.96875 14.03125 C 11.924267 14.034423 12.812525 13.84918 13.5 13.34375 C 14.723001 12.444602 15.75 10.980646 15.75 9.34375 C 15.75 6.7085649 13.635186 4.59375 11 4.59375 z M 11 5.59375 C 13.089344 5.59375 14.75 7.2544056 14.75 9.34375 C 14.75 10.573921 13.924482 11.782648 12.90625 12.53125 C 12.461146 12.85849 11.793024 13.033987 10.96875 13.03125 C 10.38361 13.029251 9.4348875 12.736557 9.03125 12.5 C 9.0251817 12.496444 9.0058177 12.503541 9 12.5 C 7.9643449 11.834013 7.25 10.671524 7.25 9.34375 C 7.25 8.821414 7.3433689 8.324049 7.53125 7.875 C 8.0948934 6.5278528 9.4329903 5.59375 11 5.59375 z M 9.09375 15.03125 L 9.53125 16.875 L 9.5625 16.96875 L 9.5625 17.0625 C 9.57102 17.07512 9.574332 17.07433 9.59375 17.09375 C 9.6908406 17.190841 10.023715 17.40625 11 17.40625 C 11.976285 17.40625 12.30916 17.19084 12.40625 17.09375 C 12.4548 17.0452 12.435 17.0075 12.4375 17 L 12.4375 16.96875 L 12.46875 16.875 L 12.84375 15.28125 C 12.211452 15.45849 11.556974 15.5646 10.9375 15.5625 C 10.307991 15.560349 9.722517 15.222758 9.09375 15.03125 z" transform="translate(0,2)"/><path id="path4672-2" d="m 11.000001,5.8335253 c -3.0445665,0 -5.5126739,2.4681078 -5.5126739,5.5126727 0,1.947699 0.8534597,3.576685 2.5496113,4.651318 0.7759954,0.491649 1.9432055,0.799621 2.9146526,0.80294 1.053949,0.0035 2.142219,-0.198322 3.011472,-0.837395 1.376577,-1.012057 2.54961,-2.674923 2.54961,-4.616863 0,-3.0445649 -2.468108,-5.5126727 -5.512673,-5.5126727 z m -10e-7,-2e-7 c -3.0445655,0 -5.5126729,2.4681075 -5.5126729,5.5126729 0,1.947699 1.0247013,3.670712 2.5496112,4.651318 l 0.7579926,3.066423 c 0,0 0,1.102535 2.2050691,1.102535 2.205069,0 2.205069,-1.102535 2.205069,-1.102535 l 0.757993,-3.100878 c 1.51736,-0.982013 2.549612,-2.674924 2.549612,-4.616863 0,-3.0445654 -2.468108,-5.5126729 -5.512674,-5.5126729 z" style="fill:none;stroke:#3a3935;stroke-width:1.51498854000000005;stroke-miterlimit:4;stroke-opacity:1;stroke-dasharray:none;display:inline;opacity:.35"/></g></svg>