<svg xmlns="http://www.w3.org/2000/svg" xmlns:svg="http://www.w3.org/2000/svg" xmlns:xlink="http://www.w3.org/1999/xlink" id="svg2837" width="22" height="22" version="1.1"><defs id="defs2839"><radialGradient id="radialGradient7192-2" cx="4.088" cy="15.89" r=".663" fx="4.657" fy="16.146" gradientTransform="matrix(2.8333333,0.9,-0.43392852,1.3660713,-0.59931111,-9.4961718)" gradientUnits="userSpaceOnUse" xlink:href="#linearGradient7186-2"/><linearGradient id="linearGradient7186-2"><stop style="stop-color:#eae3d0;stop-opacity:.38275862" id="stop7188-4" offset="0"/><stop style="stop-color:#eae3d0;stop-opacity:0" id="stop7190-9" offset="1"/></linearGradient><radialGradient id="radialGradient7192-4" cx="4.088" cy="15.89" r=".663" fx="4.657" fy="16.146" gradientTransform="matrix(2.8333333,0.9,-0.43392852,1.3660713,-0.59931111,-9.4961718)" gradientUnits="userSpaceOnUse" xlink:href="#linearGradient7186-4"/><linearGradient id="linearGradient7186-4"><stop style="stop-color:#eae3d0;stop-opacity:.38275862" id="stop7188-8" offset="0"/><stop style="stop-color:#eae3d0;stop-opacity:0" id="stop7190-7" offset="1"/></linearGradient><radialGradient id="radialGradient7192-1" cx="4.088" cy="15.89" r=".663" fx="4.657" fy="16.146" gradientTransform="matrix(2.8333333,0.9,-0.43392852,1.3660713,-0.59931111,-9.4961718)" gradientUnits="userSpaceOnUse" xlink:href="#linearGradient7186-5"/><linearGradient id="linearGradient7186-5"><stop style="stop-color:#eae3d0;stop-opacity:.38275862" id="stop7188-5" offset="0"/><stop style="stop-color:#eae3d0;stop-opacity:0" id="stop7190-4" offset="1"/></linearGradient><radialGradient id="radialGradient7192-8" cx="4.088" cy="15.89" r=".663" fx="4.657" fy="16.146" gradientTransform="matrix(2.8333333,0.9,-0.43392852,1.3660713,-0.59931111,-9.4961718)" gradientUnits="userSpaceOnUse" xlink:href="#linearGradient7186-9"/><linearGradient id="linearGradient7186-9"><stop style="stop-color:#eae3d0;stop-opacity:.38275862" id="stop7188-88" offset="0"/><stop style="stop-color:#eae3d0;stop-opacity:0" id="stop7190-1" offset="1"/></linearGradient></defs><metadata id="metadata2842"/><g id="layer5" transform="translate(0,-2)" style="display:inline"><path id="path4672-2-2" d="m 11.000001,5.8335253 c -3.0445665,0 -5.5126739,2.4681078 -5.5126739,5.5126727 0,1.947699 0.8534597,3.576685 2.5496113,4.651318 0.7759954,0.491649 1.9432055,0.799621 2.9146526,0.80294 1.053949,0.0035 2.142219,-0.198322 3.011472,-0.837395 1.376577,-1.012057 2.54961,-2.674923 2.54961,-4.616863 0,-3.0445649 -2.468108,-5.5126727 -5.512673,-5.5126727 z m 0,-10e-8 c -3.0445665,0 -5.5126739,2.4681075 -5.5126739,5.5126718 0,1.9477 1.0247013,3.670712 2.5496113,4.651319 l 0.7579925,3.066423 c 0,0 0,1.102536 2.2050701,1.102536 2.205068,0 2.205068,-1.102536 2.205068,-1.102536 l 0.757994,-3.100878 c 1.517359,-0.982013 2.54961,-2.674924 2.54961,-4.616864 0,-3.0445643 -2.468107,-5.5126718 -5.512672,-5.5126718 z" style="opacity:.59999999999999998;fill:none;stroke:#eae3d0;stroke-width:3.53497337999999983;stroke-miterlimit:4;stroke-opacity:1;stroke-dasharray:none;display:inline"/><path style="fill:none;stroke:#3a3935;stroke-width:1.51498854000000005;stroke-miterlimit:4;stroke-opacity:1;stroke-dasharray:none;display:inline" id="path4672" d="m 11,5.8335251 c -3.0445655,0 -5.5126729,2.4681075 -5.5126729,5.5126729 0,1.947699 1.0247013,3.670712 2.5496112,4.651318 l 0.7579926,3.066423 c 0,0 0,1.102535 2.2050691,1.102535 2.205069,0 2.205069,-1.102535 2.205069,-1.102535 l 0.757993,-3.100878 c 1.51736,-0.982013 2.549612,-2.674924 2.549612,-4.616863 0,-3.0445654 -2.468108,-5.5126729 -5.512674,-5.5126729 z"/><path style="fill:none;stroke:#3a3935;stroke-width:1.51498854000000005;stroke-miterlimit:4;stroke-opacity:1;stroke-dasharray:none;display:inline" id="path4672-2" d="m 11.000001,5.8335253 c -3.0445665,0 -5.5126739,2.4681078 -5.5126739,5.5126727 0,1.947699 0.8534597,3.576685 2.5496113,4.651318 0.7759954,0.491649 1.9432055,0.799621 2.9146526,0.80294 1.053949,0.0035 2.142219,-0.198322 3.011472,-0.837395 1.376577,-1.012057 2.54961,-2.674923 2.54961,-4.616863 0,-3.0445649 -2.468108,-5.5126727 -5.512673,-5.5126727 z"/></g></svg>